<?xml version="1.0" standalone="no"?>
<!DOCTYPE svg PUBLIC "-//W3C//DTD SVG 20010904//EN"
 "http://www.w3.org/TR/2001/REC-SVG-20010904/DTD/svg10.dtd">
<svg version="1.0" xmlns="http://www.w3.org/2000/svg"
 width="691.000000pt" height="270.000000pt" viewBox="0 0 691.000000 270.000000"
 preserveAspectRatio="xMidYMid meet">

<g transform="translate(0.000000,270.000000) scale(0.100000,-0.100000)"
fill="#000000" stroke="none">
<path d="M2760 2283 c-104 -10 -286 -37 -293 -43 -4 -3 2 -18 13 -33 20 -25
20 -28 5 -58 -15 -28 -15 -32 -1 -48 9 -10 16 -30 16 -44 0 -23 4 -27 29 -27
l29 0 7 -319 c7 -293 9 -320 25 -324 13 -3 16 -11 13 -31 -4 -21 0 -28 20 -35
14 -6 33 -21 42 -35 13 -19 23 -24 48 -21 153 19 206 29 268 50 95 33 146 64
198 120 131 142 113 327 -41 410 l-48 27 28 36 c54 68 76 122 76 188 1 50 -3
66 -25 95 -61 79 -207 112 -409 92z m200 -213 c13 -8 12 -13 -5 -35 -23 -31
-117 -91 -158 -101 l-28 -6 3 68 3 69 45 6 c72 10 124 9 140 -1z m21 -370 c20
-6 44 -19 55 -31 18 -19 18 -21 -1 -55 -24 -45 -90 -84 -179 -106 -55 -14 -72
-15 -78 -6 -4 7 -7 53 -6 103 l3 90 30 6 c48 10 137 10 176 -1z"/>
<path d="M5215 2279 c-173 -14 -221 -23 -216 -39 3 -8 5 -31 5 -51 1 -20 7
-44 15 -53 12 -14 13 -26 4 -57 -10 -39 -10 -39 18 -39 16 0 29 -6 30 -12 0
-7 6 -176 13 -376 7 -199 15 -364 18 -367 3 -3 17 0 32 6 23 11 29 9 49 -9 22
-21 22 -21 47 -2 14 11 40 20 59 20 l33 0 -7 108 -7 108 41 19 c25 11 45 15
50 9 4 -5 38 -74 76 -154 37 -80 70 -147 72 -149 2 -3 16 8 31 22 21 20 38 27
68 27 31 0 46 6 67 28 l27 29 -78 168 -78 168 56 56 c115 115 146 251 87 374
-70 141 -224 191 -512 166z m222 -219 c26 0 79 -42 86 -69 11 -43 -29 -94
-125 -158 -50 -35 -92 -62 -93 -60 -1 1 -5 66 -8 144 l-6 142 27 4 c15 3 43 3
62 1 19 -2 45 -4 57 -4z"/>
<path d="M4482 2265 c-84 -6 -155 -14 -157 -17 -3 -3 3 -16 14 -29 17 -22 18
-26 5 -52 -13 -24 -13 -30 1 -50 10 -14 13 -32 9 -55 l-6 -33 41 7 c33 5 41 4
41 -9 0 -8 -38 -169 -85 -358 -47 -189 -85 -350 -85 -358 0 -10 9 -12 35 -7
27 5 42 2 64 -13 19 -14 45 -21 74 -21 l45 0 22 90 c25 102 14 95 153 108 l87
8 11 -41 c6 -22 18 -67 27 -100 20 -78 26 -84 57 -55 l25 23 36 -19 c33 -18
36 -18 45 -1 7 11 22 17 45 17 29 0 34 3 30 18 -3 9 -60 222 -126 472 -66 250
-123 463 -126 473 -6 20 -48 21 -282 2z m176 -476 c12 -51 21 -93 20 -94 -2
-1 -25 -5 -52 -9 -46 -6 -48 -5 -42 17 3 12 14 57 23 100 10 42 20 77 23 77 3
0 16 -41 28 -91z"/>
<path d="M3753 2255 c-158 -43 -299 -165 -377 -326 -103 -215 -87 -407 44
-539 74 -73 146 -104 251 -108 72 -3 98 0 158 21 201 70 321 200 367 395 23
96 15 279 -15 346 -29 66 -72 118 -128 155 -55 37 -59 37 -67 9 -4 -18 -8 -20
-18 -10 -6 6 -20 12 -29 12 -10 0 -19 11 -22 30 -6 29 -8 30 -59 29 -29 0 -77
-7 -105 -14z m163 -240 c68 -44 92 -208 45 -312 -27 -61 -111 -145 -173 -173
-89 -41 -189 -17 -238 56 -36 54 -35 158 2 235 78 158 266 258 364 194z"/>
<path d="M6020 2263 c-130 -12 -230 -26 -230 -32 1 -3 7 -17 14 -31 12 -21 12
-29 -1 -53 -13 -26 -13 -31 3 -48 15 -16 16 -25 6 -55 l-11 -35 37 3 37 3 6
-275 c4 -151 7 -296 8 -321 1 -41 4 -48 26 -53 18 -5 26 -15 31 -41 5 -29 13
-39 43 -51 19 -8 45 -13 56 -10 43 11 209 130 295 213 105 99 197 230 229 323
28 86 29 207 0 270 -22 50 -68 101 -116 131 -79 49 -276 78 -433 62z m240
-229 c165 -49 146 -191 -54 -389 -99 -98 -101 -99 -103 -70 -1 17 -4 128 -5
247 -3 186 -1 218 12 222 35 9 100 5 150 -10z"/>
<path d="M476 2074 c-14 -14 -16 -71 -16 -480 l0 -464 800 0 800 0 0 470 c0
454 -1 470 -19 480 -13 7 -276 10 -785 10 -682 0 -766 -2 -780 -16z m1524
-464 l0 -420 -740 0 -740 0 0 420 0 420 740 0 740 0 0 -420z"/>
<path d="M460 1066 c0 -94 -73 -86 804 -86 587 0 775 3 784 12 7 7 12 38 12
70 l0 58 -800 0 -800 0 0 -54z"/>
<path d="M1085 948 c-2 -7 -6 -29 -9 -49 -4 -21 -18 -47 -36 -64 -17 -16 -30
-32 -30 -37 0 -4 113 -8 250 -8 138 0 250 4 250 8 0 5 -13 21 -30 37 -22 21
-31 41 -36 77 l-7 48 -174 0 c-130 0 -175 -3 -178 -12z"/>
<path d="M4633 890 c-36 -15 -43 -43 -43 -175 0 -121 1 -127 25 -151 16 -16
34 -24 49 -22 13 1 30 -3 38 -10 12 -10 18 -8 32 7 15 16 15 19 1 31 -12 10
-15 39 -15 149 0 75 -4 141 -8 147 -6 10 -47 35 -54 33 -2 0 -13 -4 -25 -9z
m42 -171 c0 -110 -2 -124 -17 -127 -16 -3 -18 8 -18 121 0 68 3 127 7 131 21
21 28 -9 28 -125z"/>
<path d="M2570 870 c-18 -18 -20 -33 -20 -150 0 -117 2 -132 20 -150 26 -26
64 -25 90 2 29 32 27 68 -5 68 -18 0 -25 -5 -25 -18 0 -26 -11 -34 -27 -21
-20 17 -18 222 3 239 13 11 16 10 21 -8 4 -15 13 -22 30 -22 22 0 24 3 19 28
-13 52 -69 69 -106 32z"/>
<path d="M2787 872 c-14 -15 -17 -42 -17 -154 0 -118 2 -137 18 -151 24 -22
65 -21 85 1 14 15 17 42 17 154 0 118 -2 137 -18 151 -24 22 -65 21 -85 -1z
m58 -153 c0 -104 -2 -124 -15 -124 -12 0 -16 21 -18 114 -3 122 1 145 21 138
9 -3 12 -37 12 -128z"/>
<path d="M2980 720 c0 -163 1 -170 20 -170 19 0 20 7 21 123 0 133 9 132 28
-3 16 -111 19 -120 41 -120 20 0 20 -1 44 145 l14 80 1 -112 1 -113 25 0 25 0
0 170 0 170 -39 0 c-44 0 -44 -1 -56 -103 -7 -56 -25 -90 -25 -46 0 12 -5 51
-11 86 l-11 63 -39 0 -39 0 0 -170z"/>
<path d="M3307 872 c-14 -15 -17 -42 -17 -154 0 -118 2 -137 18 -151 24 -22
65 -21 85 1 14 15 17 42 17 154 0 118 -2 137 -18 151 -24 22 -65 21 -85 -1z
m58 -153 c0 -104 -2 -124 -15 -124 -12 0 -16 21 -18 114 -3 122 1 145 21 138
9 -3 12 -37 12 -128z"/>
<path d="M3660 720 c0 -163 1 -170 20 -170 19 0 20 7 21 123 1 131 7 124 29
-35 l12 -88 34 0 34 0 0 103 c0 56 3 132 7 170 l6 67 -27 0 -26 0 -1 -122 -1
-123 -14 90 c-25 167 -21 155 -59 155 l-35 0 0 -170z"/>
<path d="M3900 746 c0 -130 2 -146 21 -170 25 -32 70 -35 99 -6 18 18 20 33
20 170 0 143 -1 150 -20 150 -19 0 -20 -7 -20 -139 0 -109 -3 -141 -15 -151
-29 -24 -35 0 -35 146 l0 144 -25 0 -25 0 0 -144z"/>
<path d="M4130 720 c0 -163 1 -170 20 -170 19 0 20 7 20 122 0 67 2 119 5 116
3 -3 12 -47 20 -99 21 -134 23 -139 45 -139 20 0 20 -2 44 145 l14 80 1 -112
1 -113 25 0 25 0 0 170 0 170 -39 0 c-44 0 -45 -3 -57 -103 -4 -32 -10 -60
-14 -62 -4 -3 -10 19 -14 48 -15 119 -14 117 -57 117 l-39 0 0 -170z"/>
<path d="M4820 737 c0 -136 2 -156 18 -170 23 -21 61 -22 90 -1 21 15 22 21
22 170 0 147 -1 154 -20 154 -18 0 -20 -8 -22 -147 -3 -140 -4 -148 -23 -148
-19 0 -20 8 -23 148 -2 139 -4 147 -22 147 -19 0 -20 -7 -20 -153z"/>
<path d="M5071 738 c-12 -84 -24 -161 -27 -170 -4 -14 1 -18 19 -18 23 0 26 5
32 60 6 55 9 60 31 60 24 0 26 -4 39 -82 4 -29 11 -38 25 -38 11 0 20 3 20 8
0 4 -12 80 -27 170 l-28 162 -31 0 -31 0 -22 -152z m68 10 c1 -29 -3 -38 -15
-38 -14 0 -15 7 -10 38 3 20 6 46 7 57 l0 20 9 -20 c5 -11 9 -37 9 -57z"/>
<path d="M5300 720 l0 -170 45 0 c77 0 85 16 85 169 0 128 0 130 -26 150 -17
13 -41 21 -65 21 l-39 0 0 -170z m78 118 c8 -8 12 -49 12 -118 0 -100 -7 -130
-32 -130 -4 0 -8 59 -8 130 0 72 4 130 8 130 4 0 13 -5 20 -12z"/>
<path d="M5520 720 c0 -163 1 -170 20 -170 16 0 20 7 20 35 0 19 4 35 9 35 5
0 15 -16 21 -35 9 -27 17 -35 35 -35 24 0 24 1 11 38 -12 32 -12 41 0 57 10
13 14 48 14 110 0 117 -11 135 -81 135 l-49 0 0 -170z m78 38 c-2 -75 -6 -93
-18 -93 -12 0 -16 17 -18 79 -3 89 0 106 23 106 13 0 15 -14 13 -92z"/>
<path d="M5757 872 c-14 -15 -17 -42 -17 -154 0 -118 2 -137 18 -151 25 -23
65 -21 88 4 17 18 19 37 19 149 0 112 -2 131 -19 149 -23 26 -67 27 -89 3z
m58 -153 c0 -104 -2 -124 -15 -124 -12 0 -16 21 -18 114 -3 122 1 145 21 138
9 -3 12 -37 12 -128z"/>
<path d="M1945 754 c68 -33 106 -40 153 -28 30 9 24 25 -19 46 -25 13 -57 18
-119 17 l-85 0 70 -35z"/>
<path d="M823 750 c-13 -15 -23 -31 -23 -34 0 -3 203 -6 450 -6 248 0 450 3
450 8 0 4 -12 19 -25 35 l-24 27 -403 -1 -403 0 -22 -29z"/>
<path d="M1815 761 c-10 -17 32 -32 103 -37 l67 -5 -45 25 c-45 25 -114 34
-125 17z"/>
</g>
</svg>
